<svg width="170" height="39" viewBox="0 0 170 39" fill="none" xmlns="http://www.w3.org/2000/svg">
<g clip-path="url(#clip0_2357_756)">
<path d="M9.53406 13.6231C10.8406 13.3914 12.1077 13.0068 13.3157 12.4842C12.1126 13.0068 10.8455 13.3865 9.53406 13.6231Z" fill="black"/>
<path d="M12.9656 11.5622C12.3493 10.0486 11.5555 8.58916 10.599 7.22345C10.106 6.5184 9.11003 6.40007 8.44443 6.94241L7.70487 7.54392C7.08858 8.04189 6.98504 8.92443 7.4337 9.58017C8.11409 10.5662 8.69095 11.6066 9.15934 12.6863C10.4807 12.4644 11.7626 12.0897 12.9656 11.5622Z" fill="black"/>
<path d="M10.5496 18.45C10.5693 18.7705 10.5792 19.0909 10.5792 19.4114C10.5792 22.8232 9.55369 26.1118 7.59633 29.0109C7.15259 29.6666 7.27092 30.5491 7.89215 31.0422L8.64157 31.6338C9.31703 32.1663 10.313 32.0283 10.8011 31.3183C13.2416 27.7437 14.5235 23.6614 14.5235 19.4163C14.5235 18.731 14.4841 18.0457 14.415 17.3653C13.1677 17.8435 11.8759 18.2133 10.5496 18.4598V18.45Z" fill="black"/>
<path d="M8.48384 25.2243C8.97195 23.9818 9.30229 22.695 9.46992 21.3786C8.45919 21.2356 7.42874 21.1567 6.39829 21.1567C5.74748 21.1567 5.09667 21.1863 4.44586 21.2406C3.58797 21.3145 2.98154 22.1182 3.11959 22.9711L3.27243 23.9128C3.39569 24.6968 4.11059 25.2292 4.89945 25.1651C5.40235 25.1257 5.90525 25.101 6.40322 25.101C7.10334 25.101 7.79852 25.1454 8.48877 25.2292L8.48384 25.2243Z" fill="black"/>
<path d="M9.48474 25.3722C9.95313 24.1298 10.2785 22.8479 10.4462 21.5364C10.2785 22.8479 9.95313 24.1347 9.48474 25.3722Z" fill="black"/>
<path d="M16.9542 23.9326C16.3873 23.6072 15.8005 23.3163 15.204 23.0451C14.9821 24.3664 14.632 25.6582 14.1686 26.9155C14.4398 27.0535 14.7159 27.1916 14.9772 27.3444C17.9305 29.0503 20.2675 31.5845 21.8008 34.7301C22.1459 35.4401 22.9693 35.7803 23.7089 35.4845L24.5963 35.1295C25.3951 34.8139 25.7747 33.887 25.4049 33.1129C23.5314 29.2081 20.6323 26.0526 16.9542 23.9276V23.9326Z" fill="black"/>
<path d="M15.7857 29.0453C14.8193 30.3075 13.9812 31.688 13.2959 33.1573C12.9359 33.9363 13.3304 34.8583 14.1291 35.164L15.0215 35.5042C15.761 35.7852 16.5795 35.4351 16.9197 34.7202C17.4177 33.6651 18.0192 32.6643 18.6946 31.7423C17.8367 30.7217 16.8605 29.8194 15.7808 29.0503L15.7857 29.0453Z" fill="black"/>
<path d="M32.3765 20.8708C28.659 20.8708 25.0844 21.8174 21.8895 23.6614C21.2585 24.0262 20.652 24.4256 20.0653 24.8545C21.1204 25.6878 22.0966 26.6147 22.9792 27.6303C23.2701 27.4381 23.5609 27.2507 23.8617 27.0781C26.4551 25.5842 29.3591 24.8151 32.3913 24.8151C32.8301 24.8151 33.2689 24.8299 33.7126 24.8644C34.4867 24.9186 35.1621 24.3516 35.2755 23.5874L35.4136 22.6408C35.5368 21.7928 34.9255 20.999 34.0676 20.9349C33.5006 20.8905 32.9385 20.8708 32.3765 20.8708Z" fill="black"/>
<path d="M32.3765 20.8708C28.659 20.8708 25.0844 21.8174 21.8895 23.6614C21.2585 24.0262 20.652 24.4256 20.0653 24.8545C21.1204 25.6878 22.0966 26.6147 22.9792 27.6303C23.2701 27.4381 23.5609 27.2507 23.8617 27.0781C26.4551 25.5842 29.3591 24.8151 32.3913 24.8151C32.8301 24.8151 33.2689 24.8299 33.7126 24.8644C34.4867 24.9186 35.1621 24.3516 35.2755 23.5874L35.4136 22.6408C35.5368 21.7928 34.9255 20.999 34.0676 20.9349C33.5006 20.8905 32.9385 20.8708 32.3765 20.8708Z" fill="black"/>
<path d="M29.8866 14.0027C29.433 15.2551 29.1323 16.5468 28.9991 17.8534C30.1085 18.0309 31.2326 18.1295 32.3765 18.1295C32.9385 18.1295 33.5006 18.1098 34.0676 18.0654C34.9205 18.0013 35.5368 17.2075 35.4136 16.3595L35.2755 15.4128C35.1621 14.6486 34.4867 14.0816 33.7126 14.1359C33.2689 14.1704 32.8251 14.1852 32.3863 14.1852C31.5432 14.1852 30.71 14.1211 29.8866 14.0027Z" fill="black"/>
<path d="M24.2709 12.144C24.1328 12.0701 23.9948 12.0011 23.8567 11.9222C20.8689 10.1965 18.4432 7.51442 16.9148 4.27515C16.5795 3.56025 15.761 3.21512 15.0215 3.49615L14.1291 3.83635C13.3254 4.14203 12.931 5.06402 13.2959 5.84302C15.1595 9.85635 18.1671 13.1893 21.8846 15.334C22.3382 15.5953 22.8016 15.8369 23.27 16.0588C23.482 14.7276 23.8173 13.4161 24.2709 12.1391V12.144Z" fill="black"/>
<path d="M27.9588 20.3186C27.944 20.0179 27.9292 19.7122 27.9292 19.4065C27.9292 15.9602 29.0386 12.5138 31.0798 9.57531C31.5284 8.9245 31.42 8.04689 30.8086 7.54399L30.069 6.94249C29.4034 6.40015 28.4075 6.52341 27.9145 7.22352C25.3704 10.8424 23.9899 15.1171 23.9899 19.4065C23.9899 20.1066 24.0293 20.7969 24.0983 21.4871C25.3507 20.9793 26.6375 20.5898 27.9638 20.3186H27.9588Z" fill="black"/>
<path d="M25.5479 27.3099C26.1198 28.6953 26.8397 30.0364 27.7074 31.3084C28.1906 32.0184 29.1865 32.1564 29.862 31.624L30.6114 31.0323C31.2326 30.5442 31.351 29.6666 30.9122 29.0109C30.2811 28.0741 29.7437 27.0929 29.3098 26.0822C28.0032 26.3287 26.746 26.7429 25.543 27.3049L25.5479 27.3099Z" fill="black"/>
<path d="M22.8066 10.0338C23.8124 8.77167 24.6851 7.38623 25.4049 5.8874C25.7747 5.11333 25.395 4.18641 24.6013 3.87087L23.7138 3.51588C22.9792 3.22499 22.1558 3.56026 21.8057 4.27023C21.2782 5.34012 20.6569 6.34099 19.9519 7.26297C20.795 8.30821 21.7515 9.23513 22.8115 10.0338H22.8066Z" fill="black"/>
<path d="M15.5786 11.2763C15.3814 11.4045 15.1891 11.5376 14.982 11.6559C12.4182 13.1351 9.44519 13.9042 6.39822 13.9042C5.90025 13.9042 5.39735 13.8845 4.89445 13.8401C4.10559 13.776 3.39561 14.3085 3.26742 15.0924L3.11458 16.0341C2.97653 16.8822 3.58297 17.6858 4.44085 17.7647C5.09167 17.8239 5.74248 17.8485 6.38836 17.8485C10.1256 17.8485 13.7839 16.8969 16.9492 15.0727C17.4571 14.7769 17.9501 14.4663 18.4283 14.131C17.393 13.2731 16.4365 12.3166 15.5687 11.2763H15.5786Z" fill="black"/>
</g>
<g clip-path="url(#clip1_2357_756)">
<path d="M67.7295 17.2606C68.4463 15.9301 69.4207 14.8994 70.6575 14.1639C71.8944 13.4283 73.2577 13.0582 74.7522 13.0582C76.1014 13.0582 77.2774 13.3206 78.2846 13.85C79.2919 14.3794 80.0977 15.04 80.6974 15.827V14.281C80.6974 13.761 81.119 13.3346 81.6437 13.3346H83.335C83.855 13.3346 84.2813 13.7563 84.2813 14.281V29.5445C84.2813 30.0645 83.8597 30.4909 83.335 30.4909H81.6437C81.1237 30.4909 80.6974 30.0692 80.6974 29.5445V27.9376C80.0977 28.7481 79.2778 29.4227 78.2378 29.9615C77.1977 30.5002 76.0171 30.772 74.6866 30.772C73.2108 30.772 71.8616 30.3925 70.6388 29.6335C69.416 28.8746 68.4416 27.8158 67.7295 26.4571C67.0127 25.0985 66.6566 23.5572 66.6566 21.8331C66.6566 20.109 67.0127 18.5864 67.7295 17.2559V17.2606ZM79.9665 18.8207C79.4793 17.9493 78.8421 17.284 78.0504 16.8296C77.2633 16.3752 76.4106 16.1456 75.4971 16.1456C74.5835 16.1456 73.7309 16.3705 72.9438 16.8155C72.1567 17.2606 71.5149 17.9165 71.0277 18.7785C70.5404 19.6406 70.2968 20.6619 70.2968 21.8472C70.2968 23.0324 70.5404 24.0678 71.0277 24.9626C71.5149 25.8575 72.1567 26.5368 72.9578 27.0006C73.759 27.4691 74.6023 27.7033 75.4971 27.7033C76.3919 27.7033 77.2633 27.4738 78.0504 27.0193C78.8374 26.5649 79.4793 25.8949 79.9665 25.0095C80.4537 24.1287 80.6974 23.0933 80.6974 21.9127C80.6974 20.7321 80.4537 19.7015 79.9665 18.8301V18.8207Z" fill="black" stroke="black" stroke-width="0.234247" stroke-linejoin="round"/>
<path d="M124.412 17.2606C125.129 15.9301 126.104 14.8994 127.341 14.1639C128.577 13.4283 129.941 13.0582 131.435 13.0582C132.784 13.0582 133.96 13.3206 134.968 13.85C135.975 14.3794 136.781 15.04 137.38 15.827V14.281C137.38 13.761 137.802 13.3346 138.327 13.3346H140.018C140.538 13.3346 140.964 13.7563 140.964 14.281V29.5445C140.964 30.0645 140.543 30.4909 140.018 30.4909H138.327C137.807 30.4909 137.38 30.0692 137.38 29.5445V27.9376C136.776 28.7481 135.956 29.4227 134.921 29.9615C133.881 30.5002 132.7 30.772 131.37 30.772C129.894 30.772 128.545 30.3925 127.322 29.6335C126.099 28.8746 125.129 27.8158 124.412 26.4571C123.696 25.0985 123.34 23.5572 123.34 21.8331C123.34 20.109 123.696 18.5864 124.412 17.2559V17.2606ZM136.649 18.8207C136.162 17.9493 135.525 17.284 134.733 16.8296C133.946 16.3752 133.094 16.1456 132.18 16.1456C131.267 16.1456 130.414 16.3705 129.627 16.8155C128.84 17.2606 128.198 17.9165 127.711 18.7785C127.223 19.6406 126.98 20.6619 126.98 21.8472C126.98 23.0324 127.223 24.0678 127.711 24.9626C128.198 25.8575 128.844 26.5368 129.641 27.0006C130.442 27.4691 131.285 27.7033 132.18 27.7033C133.075 27.7033 133.946 27.4738 134.733 27.0193C135.52 26.5649 136.162 25.8949 136.649 25.0095C137.137 24.1287 137.38 23.0933 137.38 21.9127C137.38 20.7321 137.137 19.7015 136.649 18.8301V18.8207Z" fill="black" stroke="black" stroke-width="0.234247" stroke-linejoin="round"/>
<path d="M148.929 8.8324V30.013C148.929 30.5283 148.512 30.9406 148.001 30.9406H146.31C145.794 30.9406 145.382 30.5236 145.382 30.013V8.8324C145.382 8.31706 145.799 7.90479 146.31 7.90479H148.001C148.516 7.90479 148.929 8.32174 148.929 8.8324Z" fill="black" stroke="black" stroke-width="0.234247" stroke-linejoin="round"/>
<path d="M153.08 17.2606C153.796 15.9301 154.771 14.8994 156.008 14.1639C157.244 13.4283 158.608 13.0582 160.102 13.0582C161.452 13.0582 162.627 13.3206 163.635 13.85C164.642 14.3794 165.443 15.04 166.047 15.827V14.281C166.047 13.761 166.469 13.3346 166.994 13.3346H168.685C169.205 13.3346 169.631 13.7563 169.631 14.281V29.5445C169.631 30.0645 169.21 30.4909 168.685 30.4909H166.994C166.474 30.4909 166.047 30.0692 166.047 29.5445V27.9376C165.443 28.7481 164.623 29.4227 163.588 29.9615C162.548 30.5002 161.367 30.772 160.037 30.772C158.561 30.772 157.212 30.3925 155.989 29.6335C154.766 28.8746 153.792 27.8158 153.08 26.4571C152.363 25.0985 152.007 23.5572 152.007 21.8331C152.007 20.109 152.363 18.5864 153.08 17.2559V17.2606ZM165.312 18.8207C164.825 17.9493 164.188 17.284 163.396 16.8296C162.609 16.3752 161.756 16.1456 160.842 16.1456C159.929 16.1456 159.076 16.3705 158.289 16.8155C157.502 17.2606 156.86 17.9165 156.373 18.7785C155.886 19.6406 155.642 20.6619 155.642 21.8472C155.642 23.0324 155.886 24.0678 156.373 24.9626C156.86 25.8575 157.502 26.5368 158.303 27.0006C159.104 27.4691 159.948 27.7033 160.842 27.7033C161.737 27.7033 162.609 27.4738 163.396 27.0193C164.183 26.5649 164.825 25.8949 165.312 25.0095C165.799 24.1287 166.043 23.0933 166.043 21.9127C166.043 20.7321 165.799 19.7015 165.312 18.8301V18.8207Z" fill="black" stroke="black" stroke-width="0.234247" stroke-linejoin="round"/>
<path d="M118.275 25.478C117.732 25.2672 117.118 25.478 116.814 25.9746C116.064 27.1833 114.846 27.7877 113.169 27.7877C111.716 27.7877 110.559 27.2676 109.697 26.2323C108.835 25.1922 108.404 23.7539 108.404 21.9034C108.404 20.0528 108.835 18.6193 109.697 17.5933C110.559 16.5673 111.716 16.0519 113.169 16.0519C114.204 16.0519 115.066 16.2908 115.755 16.7687C116.195 17.0779 116.561 17.4621 116.846 17.9259C117.132 18.3897 117.704 18.5818 118.21 18.3803L119.952 17.687C120.318 17.5417 120.477 17.1013 120.285 16.7593C119.788 15.8692 119.133 15.1337 118.322 14.5434C116.963 13.5595 115.244 13.0629 113.169 13.0629C111.529 13.0629 110.077 13.4284 108.812 14.1545C107.547 14.8807 106.554 15.9161 105.837 17.2513C105.12 18.5911 104.764 20.1419 104.764 21.9081C104.764 23.6743 105.12 25.225 105.837 26.5649C106.554 27.9048 107.542 28.9402 108.812 29.6804C110.077 30.4159 111.529 30.786 113.169 30.786C115.202 30.786 116.907 30.2707 118.275 29.2447C119.081 28.6403 119.732 27.9142 120.238 27.0662C120.444 26.7195 120.28 26.2697 119.91 26.1245L118.285 25.4874L118.275 25.478Z" fill="black" stroke="black" stroke-width="0.234247" stroke-linejoin="round"/>
<path d="M99.2966 21.5426C98.4955 21.2006 97.4742 20.8633 96.228 20.5307C95.2957 20.259 94.5882 20.0388 94.1104 19.8607C93.4732 19.6265 92.9673 19.2704 92.5925 18.7973C92.5362 18.7223 92.4941 18.6333 92.4707 18.5443C92.2692 17.6916 92.4988 17.0357 93.1453 16.5766C93.6419 16.2252 94.3587 16.0472 95.2957 16.0472C96.2327 16.0472 97.0057 16.2768 97.5679 16.7312C97.8068 16.928 97.9989 17.1482 98.1488 17.4012C98.4955 17.9915 99.1842 18.2819 99.8166 18.0243L101.424 17.373C101.672 17.27 101.789 16.9936 101.695 16.7406C101.381 15.8739 100.861 15.143 100.135 14.5387C98.9405 13.5548 97.3711 13.0582 95.4175 13.0582C94.1104 13.0582 92.9532 13.2784 91.9459 13.7141C90.9387 14.1498 90.1657 14.7448 89.6269 15.5038C89.0881 16.2627 88.8164 17.0966 88.8164 18.0102C88.8164 19.1299 89.1116 20.0341 89.7019 20.7181C90.2922 21.4021 90.9949 21.9127 91.8054 22.2454C92.6159 22.578 93.6653 22.92 94.949 23.2714C96.2748 23.6462 97.2493 23.9882 97.8583 24.2974C98.4721 24.6066 98.7766 25.0844 98.7766 25.731C98.7766 26.3306 98.5002 26.8272 97.952 27.2114C97.4039 27.5956 96.6309 27.7876 95.633 27.7876C94.6351 27.7876 93.8855 27.544 93.253 27.0568C92.9579 26.8272 92.7236 26.5743 92.5503 26.2932C92.2083 25.731 91.5009 25.5201 90.8918 25.7638L89.7956 26.1995C89.1584 26.4524 88.9335 27.2442 89.3411 27.7923L89.5332 28.05C90.1563 28.8886 91.0043 29.5539 92.0724 30.0411C93.1406 30.5283 94.3493 30.772 95.6986 30.772C97.0478 30.772 98.1863 30.5518 99.1701 30.1161C100.154 29.6804 100.918 29.076 101.456 28.3124C101.995 27.544 102.267 26.6726 102.267 25.6982C102.248 24.5972 101.944 23.7164 101.363 23.0512C100.782 22.3859 100.093 21.8846 99.2919 21.5426H99.2966Z" fill="black" stroke="black" stroke-width="0.234247" stroke-linejoin="round"/>
<path d="M61.4376 25.492C61.0581 25.3374 60.6224 25.4499 60.36 25.7684C59.929 26.2838 59.4277 26.7054 58.8562 27.0287C57.8583 27.5909 56.7058 27.8673 55.3987 27.8673C53.9651 27.8673 52.6908 27.5393 51.5711 26.8881C50.4514 26.2322 49.5753 25.3046 48.9382 24.1006C48.3057 22.8966 47.9871 21.4958 47.9871 19.8982C47.9871 18.3007 48.3057 16.8999 48.9382 15.6958C49.5706 14.4918 50.4467 13.5689 51.5711 12.9224C52.6908 12.2805 53.9698 11.9573 55.3987 11.9573C56.7058 11.9573 57.8583 12.2384 58.8562 12.7959C59.3621 13.0816 59.8166 13.4424 60.2101 13.8781C60.4584 14.1545 60.8472 14.2482 61.1939 14.1076L62.9976 13.3721C63.5833 13.1332 63.7285 12.3789 63.2834 11.9292C62.7681 11.4044 62.1871 10.9406 61.55 10.533C59.7557 9.40397 57.7037 8.8371 55.3987 8.8371C53.3842 8.8371 51.5336 9.31028 49.8423 10.2519C48.1511 11.1983 46.8112 12.5101 45.8274 14.192C44.8388 15.8785 44.3469 17.7759 44.3469 19.8935C44.3469 22.0111 44.8388 23.9085 45.8274 25.5904C46.8112 27.2723 48.1464 28.5841 49.8283 29.5304C51.5102 30.4768 53.3654 30.9453 55.4034 30.9453C57.7083 30.9453 59.7557 30.3831 61.5547 29.2634C62.2996 28.7996 62.9555 28.2561 63.527 27.6284C63.944 27.1739 63.7847 26.4431 63.2131 26.2088L61.4422 25.4873L61.4376 25.492Z" fill="black" stroke="black" stroke-width="0.234247" stroke-linejoin="round"/>
</g>
<defs>
<clipPath id="clip0_2357_756">
<rect width="32.3236" height="32.1954" fill="white" transform="translate(3.09985 3.4024)"/>
</clipPath>
<clipPath id="clip1_2357_756">
<rect width="125.514" height="23.2794" fill="white" transform="translate(44.2299 7.78766)"/>
</clipPath>
</defs>
</svg>
